<?xml version="1.0" encoding="utf-8"?>
<!-- Generator: Adobe Illustrator 20.1.0, SVG Export Plug-In . SVG Version: 6.00 Build 0)  -->
<svg version="1.1" id="Camada_1" xmlns="http://www.w3.org/2000/svg" xmlns:xlink="http://www.w3.org/1999/xlink" x="0px" y="0px"
	 viewBox="0 0 100 100" style="enable-background:new 0 0 100 100;" xml:space="preserve">
<g>
	<g>
		<path d="M80.5,39.9l-4.3,6.3h9.7v7.7c-2.3,1.9-5.6,3.1-9.1,3.1c-7.7,0-12.8-6.2-12.8-14.7v-0.1c0-7.9,5.3-14.5,12.3-14.5
			c4.8,0,7.7,1.7,10.6,4.4l4.2-5.5C87.1,23,83,21,76.5,21c-6.4,0-11.7,3-15.2,7.7l-3-7.6h-7.8L34.1,63.1V30h11.7l3.3-8.5H11.6V30h14
			v33.4h17l2.2-6l4.3-11.6h0l5.1-13.6l2.8,7.4C57,40.5,57,41.4,57,42.3v0.1c0,12,7.8,21.2,19.6,21.2c6.7,0,12-2.9,15.8-6.4V39.9
			H80.5z"/>
	</g>
</g>
</svg>
